<svg id="eJkG1T0ZBtQ1" xmlns="http://www.w3.org/2000/svg" xmlns:xlink="http://www.w3.org/1999/xlink" viewBox="0 0 300 300" shape-rendering="geometricPrecision" text-rendering="geometricPrecision" project-id="2ff780eef990423db8b4ee3b0481f0e4" export-id="155992cb332f40ab9a6ba4a7f03707fc" cached="false"><path d="M36.46013,150C36.46013,89.94589,87.29366,41.26242,150,41.26242c19.35414,0,37.57724,4.63774,53.52375,12.81613-3.31168-.34535-6.67328-.52237-10.07614-.52237-53.14612,0-96.22955,43.17938-96.22955,96.44382s43.08344,96.44382,96.22955,96.44382c3.40285,0,6.76446-.17702,10.07614-.52237-15.94651,8.17838-34.16961,12.81613-53.52375,12.81613-62.70634,0-113.53987-48.68347-113.53987-108.73758Z" transform="matrix(1.275628 0 0 1.275628-34.331071-41.3442)" fill="#f6f6f6" stroke-width="0"/><g transform="matrix(1.96726 0 0 1.967265-40.664746-208.503428)"><line x1="-9.482316" y1="15.210149" x2="9.482317" y2="-15.210149" transform="matrix(1 0 0-1 153.505 164.495)" fill="none" stroke="#f6f6f6" stroke-width="3"/><line x1="-9.482316" y1="15.210149" x2="9.482317" y2="-15.210149" transform="translate(86.7173 164.495)" fill="none" stroke="#f6f6f6" stroke-width="3"/><line x1="-25.198619" y1="0" x2="25.19862" y2="0" transform="translate(120.099 150)" fill="none" stroke="#f6f6f6" stroke-width="3"/><line x1="-8.554629" y1="14.818304" x2="8.554629" y2="-14.818304" transform="translate(93.0889 169.442)" fill="#d2dbed" stroke="#f6f6f6" stroke-width="3"/><line x1="-8.554629" y1="14.818304" x2="8.554629" y2="-14.818304" transform="matrix(-1 0 0 1 149.405 168.463)" fill="none" stroke="#f6f6f6" stroke-width="3"/><line x1="-15" y1="0" x2="15" y2="0" transform="matrix(1.59063 0 0-1 120.099 155.396)" fill="none" stroke="#f6f6f6" stroke-width="3"/><rect width="41.9205" height="8.72421" rx="0" ry="0" transform="matrix(.388123-.639333 0.854814 0.518935 80.012 175.178)" fill="#f6f6f6" stroke-width="0"/><rect width="41.9205" height="8.72421" rx="0" ry="0" transform="matrix(.340184 0.598329 0.869317-.494255 139.601 154.11)" fill="#f6f6f6" stroke-width="0"/><rect width="44.9191" height="5.33802" rx="0" ry="0" transform="translate(96.1996 149.285)" fill="#f6f6f6" stroke-width="0"/><path d="M96.77368,148.37709c.48485,0,.95697.08928,1.39626.2562h-1.38903v15.40804h-4.905v19.23982h-10.71615c-1.4021-.00255-2.69676-.75153-3.39791-1.96574s-.70267-2.70991-.00401-3.92554l15.6072-27.04086c.70148-1.2199,2.00141-1.97193,3.40862-1.97193l.00002.00001Z" fill="#f6f6f6"/><path d="M144.90368,148.71147c1.36536,0,2.62662.72966,3.30724,1.91328l15.14951,26.22357c.68513,1.18129.68661,2.63869.00388,3.82137s-1.94553,1.91025-3.31112,1.90771h-9.72964c-.41584-.45614-.90815-.84136-1.45666-1.13538v-28.41856h-8.65492l1.38447-2.39871c.68062-1.18362,1.94189-1.91328,3.30724-1.91328Z" fill="#f6f6f6"/><rect width="48" height="48" rx="6.22" ry="6.22" transform="matrix(.334126 0 0 0.334126 85.0698 200.054)" fill="#f6f6f6"/><rect width="48" height="48" rx="6.22" ry="6.22" transform="matrix(.334126 0 0 0.334126 138.712 200.054)" fill="#f6f6f6"/><path d="M87.19193,201.46492c-6.3578,0-11.51181-1.76591-11.51181-3.94427v-22.54956c0-2.17836,5.15401-3.94427,11.51181-3.94427h65.81349c6.3578,0,11.51181,1.76591,11.51181,3.94427v22.54956c0,2.17836-5.15401,3.94427-11.51181,3.94427h-65.81349Zm9.09034-9.77218c3.00822,0,5.44687-2.43865,5.44687-5.44687s-2.43865-5.44687-5.44687-5.44687-5.44687,2.43865-5.44687,5.44687s2.43865,5.44687,5.44687,5.44687Zm50.01498,0c3.00822,0,5.44687-2.43865,5.44687-5.44687s-2.43865-5.44687-5.44687-5.44687-5.44687,2.43865-5.44687,5.44687s2.43865,5.44687,5.44687,5.44687Z" fill="#f6f6f6"/></g></svg>
